<?xml version="1.0" standalone="no"?>
<!DOCTYPE svg PUBLIC "-//W3C//DTD SVG 20010904//EN"
 "http://www.w3.org/TR/2001/REC-SVG-20010904/DTD/svg10.dtd">
<svg version="1.0" xmlns="http://www.w3.org/2000/svg"
 width="512.000000pt" height="512.000000pt" viewBox="0 0 512.000000 512.000000"
 preserveAspectRatio="xMidYMid meet">
<metadata>
Created by potrace 1.11, written by Peter Selinger 2001-2013
</metadata>
<g transform="translate(0.000000,512.000000) scale(0.100000,-0.100000)"
fill="#000000" stroke="none">
<path d="M3135 4720 c-40 -14 -58 -29 -84 -70 -23 -38 -26 -74 -11 -116 12
-30 7 -42 -12 -27 -7 6 -76 33 -153 61 -144 52 -277 89 -425 117 -105 20 -399
32 -425 17 -16 -8 -8 -11 40 -16 165 -18 243 -30 385 -62 164 -36 381 -102
516 -156 l81 -33 -146 0 c-135 0 -251 -16 -251 -33 0 -4 66 -8 148 -8 172 -2
255 -20 385 -84 195 -96 346 -271 458 -530 22 -50 39 -93 39 -97 0 -4 -26 18
-57 48 -83 80 -206 160 -221 144 -3 -3 0 -10 8 -15 34 -20 118 -98 170 -157
63 -72 112 -162 137 -254 20 -72 24 -304 6 -374 -11 -45 -13 -42 -38 65 -45
191 -98 321 -199 490 -109 182 -231 323 -396 461 -172 144 -428 265 -677 319
-113 25 -362 43 -463 35 -349 -29 -692 -144 -894 -300 -30 -23 -11 -30 21 -8
34 24 162 85 258 123 70 28 235 81 235 76 0 -2 -28 -20 -62 -41 -74 -45 -155
-106 -239 -179 l-61 -53 -91 -7 c-140 -10 -166 -19 -210 -68 -75 -84 -268
-391 -254 -404 3 -3 23 25 45 63 77 132 237 328 280 344 14 5 56 12 96 15 l71
7 -87 -89 c-129 -131 -201 -226 -262 -346 -55 -107 -101 -238 -110 -312 -7
-54 7 -33 29 44 20 72 74 193 114 255 138 215 558 602 796 731 l49 28 -41 -50
c-71 -86 -100 -159 -114 -288 -10 -102 -40 -166 -89 -191 -37 -19 -77 -6 -86
29 -8 32 1 46 32 46 27 0 33 17 9 26 -48 19 -92 -34 -73 -86 16 -43 39 -60 80
-60 49 0 94 23 116 60 l18 29 31 -67 c33 -70 115 -172 129 -159 4 4 -2 17 -13
30 -27 28 -79 115 -88 145 -6 20 0 17 35 -16 94 -92 211 -117 315 -68 180 83
161 336 -25 336 -71 0 -119 -66 -89 -121 13 -26 28 -16 22 15 -6 30 31 66 68
66 66 0 104 -42 104 -115 0 -109 -161 -196 -279 -151 -49 19 -120 89 -141 139
-47 114 -12 259 88 365 96 101 179 132 358 132 100 0 227 -16 329 -41 70 -17
240 -75 290 -98 l45 -21 -50 6 c-79 10 -275 12 -356 2 -150 -17 -292 -55 -391
-104 -46 -23 -82 -57 -42 -39 147 65 325 100 491 96 l41 -1 -28 -30 c-25 -27
-34 -30 -92 -31 -34 0 -72 -4 -83 -9 l-20 -9 20 -1 c11 0 52 -5 90 -10 65 -8
72 -7 95 14 69 62 87 69 184 68 141 -2 309 -57 451 -147 60 -38 222 -191 213
-200 -3 -3 -43 12 -89 34 -213 98 -482 127 -712 76 -117 -25 -230 -61 -286
-89 -44 -23 -34 -30 20 -12 43 14 77 22 211 51 92 20 292 39 315 31 16 -7 16
-9 -6 -20 -64 -35 -93 -155 -50 -210 27 -34 89 -66 129 -66 43 0 90 47 90 89
0 37 -15 41 -24 7 -10 -40 -34 -56 -81 -56 -35 0 -48 5 -64 26 -40 51 -17 136
46 175 43 27 140 28 236 4 66 -16 228 -93 234 -110 2 -6 -24 -16 -58 -22 -75
-14 -183 -69 -266 -134 l-62 -48 -95 44 c-112 53 -269 107 -378 130 -86 19
-141 16 -68 -3 141 -38 373 -141 488 -218 35 -24 68 -44 72 -44 4 0 20 16 34
35 48 62 89 95 173 137 75 37 90 41 160 42 94 1 136 -18 205 -92 68 -72 132
-213 154 -337 l7 -39 -31 26 c-72 60 -148 60 -211 0 -79 -75 -81 -211 -3 -272
24 -19 82 -28 82 -12 0 4 -13 13 -29 20 -55 24 -70 109 -32 180 34 63 146 58
207 -10 78 -86 81 -444 6 -707 l-18 -64 -38 104 c-71 195 -69 292 7 469 38 87
33 105 -10 38 -42 -67 -80 -159 -94 -224 l-12 -61 -81 82 c-81 81 -177 165
-224 197 -46 30 -110 107 -139 166 -24 49 -28 69 -28 143 0 76 3 90 27 127 37
55 103 93 176 99 81 7 165 -30 229 -101 35 -40 44 -46 38 -26 -13 47 -61 105
-114 137 -158 95 -352 20 -407 -158 -25 -79 -17 -195 20 -275 l24 -53 -108 55
c-234 118 -436 276 -642 504 -38 41 -68 70 -68 64 0 -24 131 -185 240 -296
l115 -116 -46 -6 c-96 -13 -201 31 -337 141 -65 53 -61 33 5 -27 32 -30 57
-57 55 -62 -1 -5 2 -7 7 -4 5 3 42 -14 82 -38 66 -39 83 -44 154 -50 78 -6
167 -27 189 -45 6 -5 64 -38 129 -74 l118 -65 -113 0 c-234 -1 -443 -71 -693
-231 -192 -124 -308 -157 -509 -147 -221 11 -321 50 -446 176 -110 111 -170
245 -170 379 0 116 75 283 159 351 107 89 270 122 394 81 153 -50 271 -168
305 -304 26 -102 4 -245 -51 -339 -34 -59 -130 -146 -200 -183 -30 -16 -53
-33 -51 -37 6 -9 107 26 149 52 44 27 140 131 165 178 l19 37 1 -35 c1 -43 46
-126 83 -154 22 -17 43 -21 97 -21 76 0 100 12 154 78 43 53 48 136 13 189
-14 20 -24 38 -22 40 2 2 -23 1 -56 -2 -36 -4 -66 -12 -76 -23 -22 -21 -13
-30 19 -18 40 15 82 -9 97 -57 12 -36 12 -44 -5 -78 -28 -56 -65 -79 -129 -79
-102 0 -135 67 -135 270 0 107 -10 201 -26 258 -4 13 15 4 63 -31 156 -113
363 -211 542 -257 115 -29 109 -11 -10 28 -64 21 -158 59 -208 83 -83 41 -91
47 -79 62 12 15 11 16 -4 4 -15 -12 -27 -8 -94 35 -42 26 -120 84 -173 128
-283 238 -420 294 -605 250 -212 -51 -363 -222 -395 -450 -14 -95 12 -241 51
-292 7 -9 3 -10 -19 -4 -63 18 -115 -9 -145 -76 -14 -32 -18 -55 -13 -81 9
-48 59 -97 110 -106 35 -7 42 -5 62 19 13 14 23 38 23 53 l-1 27 -16 -27 c-26
-42 -80 -51 -113 -18 -15 15 -20 33 -20 69 0 42 4 53 26 70 15 12 36 21 48 21
38 -1 100 -37 146 -85 95 -100 127 -126 205 -165 121 -61 212 -80 375 -80 115
0 151 4 218 23 l81 24 -20 -28 c-11 -15 -37 -42 -59 -59 -139 -110 -303 -119
-440 -22 -35 24 -80 44 -124 55 -38 9 -104 32 -148 51 -43 19 -78 30 -78 26 0
-9 186 -101 255 -125 28 -10 61 -28 75 -40 14 -12 43 -34 65 -49 46 -30 41
-31 -83 -16 -259 33 -501 177 -651 389 -38 53 -85 126 -105 161 -45 81 -46 59
-3 -40 48 -109 116 -209 209 -305 90 -95 179 -158 290 -209 109 -50 167 -61
313 -61 235 0 375 59 563 238 199 189 397 299 615 342 105 21 216 16 340 -15
256 -63 486 -261 558 -478 12 -37 24 -74 27 -82 3 -8 -11 5 -32 28 -76 83
-214 173 -313 202 -23 7 -40 17 -37 21 3 5 -1 6 -8 4 -8 -3 -47 1 -87 10 -92
19 -231 19 -315 0 -141 -33 -310 -157 -362 -265 -43 -90 -54 -116 -63 -160
-13 -57 -16 -175 -6 -215 14 -56 66 -147 111 -195 24 -26 44 -53 43 -61 0 -8
-4 -5 -9 6 -10 24 -11 1 -1 -35 7 -24 7 -24 14 9 6 28 9 32 22 21 8 -7 12 -16
9 -21 -3 -5 2 -6 11 -3 8 4 21 1 28 -5 25 -20 132 -41 212 -41 76 0 179 25
211 51 6 5 15 5 19 1 5 -4 5 -2 2 4 -4 7 3 19 16 27 140 91 206 317 139 471
-55 124 -216 216 -378 216 -51 0 -53 -14 -2 -18 151 -11 300 -122 339 -250 20
-67 8 -188 -24 -254 -31 -63 -110 -148 -139 -148 -10 0 -18 -4 -18 -10 0 -16
-69 -40 -116 -40 -39 0 -43 2 -47 27 l-4 28 -2 -27 c-1 -22 -6 -28 -23 -28
-51 0 -68 11 -69 44 -2 30 -2 30 -6 4 -5 -32 -4 -32 -38 -16 -14 6 -25 18 -26
27 0 9 -3 11 -5 5 -16 -40 -158 101 -192 190 -25 64 -30 106 -9 70 25 -44 74
-93 124 -127 28 -19 49 -38 45 -43 -4 -4 -1 -4 5 0 7 4 36 0 65 -9 56 -16 138
-20 138 -6 0 5 -19 11 -42 15 -56 9 -170 64 -162 78 4 6 3 8 -4 4 -14 -8 -86
60 -77 74 4 6 1 9 -6 8 -6 -2 -25 21 -40 51 -51 95 -33 221 46 320 39 49 43
49 18 0 -14 -26 -18 -58 -17 -134 0 -88 3 -108 29 -166 20 -45 42 -75 71 -99
24 -19 42 -39 41 -44 -1 -6 4 -10 12 -8 7 2 21 -3 30 -11 42 -35 105 -52 196
-52 100 0 143 15 196 68 31 31 32 52 2 24 -60 -53 -201 -74 -279 -41 -22 9
-34 18 -29 19 66 18 126 41 152 61 62 47 82 170 36 233 -24 33 -98 71 -138 71
-37 0 -91 -32 -100 -59 -3 -12 -10 -21 -14 -21 -5 0 -6 -11 -3 -25 5 -29 22
-34 22 -7 0 32 36 55 95 60 48 4 56 2 79 -22 51 -56 46 -150 -12 -194 -32 -25
-43 -27 -123 -27 -82 0 -89 2 -126 31 -61 48 -88 113 -87 209 0 101 15 144 68
198 83 86 202 123 372 114 175 -8 329 -72 440 -182 88 -87 108 -142 108 -305
0 -250 -76 -435 -245 -596 -139 -132 -322 -227 -529 -275 -77 -18 -254 -15
-308 5 l-43 16 -67 -38 c-73 -41 -164 -85 -199 -96 -18 -6 -25 -1 -42 31 -18
37 -22 39 -93 51 -236 42 -505 146 -716 276 -84 52 -96 57 -132 51 -37 -6 -40
-5 -46 22 -11 52 -15 58 -75 106 -177 143 -345 408 -456 722 -60 168 -64 137
-7 -51 42 -139 115 -306 181 -417 55 -91 182 -246 242 -295 28 -23 41 -41 41
-58 0 -23 -3 -24 -37 -19 -121 20 -125 22 -179 98 -63 89 -127 199 -167 286
-16 36 -32 61 -34 55 -5 -16 68 -190 127 -300 47 -89 48 -91 23 -86 -37 7 -21
-14 21 -28 23 -7 44 -27 68 -63 57 -85 147 -184 238 -259 l85 -71 -70 6 c-38
4 -88 9 -110 13 -29 5 -37 4 -30 -4 12 -14 127 -39 219 -48 36 -4 66 -10 66
-14 0 -14 305 -150 337 -150 7 0 13 -4 13 -9 0 -9 -58 -21 -107 -21 -18 0 -33
-4 -33 -9 0 -9 -109 48 -138 71 -7 6 -59 23 -115 38 -56 15 -111 30 -122 34
-16 6 -15 4 5 -12 13 -11 63 -33 110 -49 47 -15 105 -43 129 -60 l44 -33 -72
0 c-82 0 -98 -19 -18 -22 28 -1 68 -3 87 -3 33 -2 93 -26 103 -42 3 -5 -34 -6
-81 -5 -88 4 -104 -4 -35 -18 21 -5 63 -13 93 -20 152 -32 339 -48 532 -47
108 1 194 -1 190 -4 -4 -3 -53 -20 -109 -38 -55 -18 -148 -56 -206 -85 l-105
-53 -60 23 c-70 26 -243 112 -303 150 -23 14 -39 20 -37 13 6 -19 199 -145
311 -204 l95 -49 68 33 c64 31 193 83 255 101 l26 8 -17 -45 c-9 -25 -23 -49
-30 -53 -8 -5 -54 -17 -102 -27 -48 -9 -88 -21 -88 -26 0 -5 17 -6 38 -3 20 3
63 8 95 12 l57 6 0 -31 c0 -31 -1 -31 -50 -31 -27 0 -50 -4 -50 -10 0 -5 22
-10 49 -10 39 0 51 -4 54 -17 4 -17 5 -17 6 0 1 14 11 17 64 17 34 0 91 5 127
10 51 7 68 6 79 -4 13 -14 -13 -25 -122 -51 -29 -8 -47 -25 -25 -25 7 0 51 9
98 20 l85 19 57 -50 58 -50 82 57 c46 32 114 89 153 126 72 72 91 82 143 76
l31 -3 -27 -42 c-15 -23 -37 -45 -49 -48 -13 -3 -23 -10 -23 -16 0 -6 5 -7 10
-4 23 14 8 -13 -25 -45 -34 -33 -43 -50 -27 -50 4 0 32 24 63 53 50 47 68 57
145 79 49 14 98 29 109 34 16 6 18 5 9 -7 -17 -23 -89 -114 -94 -119 -50 -52
-62 -70 -47 -70 21 0 227 197 227 217 0 13 55 43 79 43 15 0 22 -49 10 -73 -7
-12 -21 -29 -33 -37 -44 -33 -189 -129 -200 -133 -6 -2 -8 -7 -5 -11 13 -14
254 128 293 173 17 19 19 28 10 71 l-10 49 46 43 c25 24 58 59 73 78 l27 35
-1 -35 c-3 -77 -11 -93 -58 -111 -48 -17 -43 -34 7 -20 29 9 30 8 22 -17 -13
-47 -72 -182 -81 -188 -5 -3 -9 -11 -9 -17 1 -26 54 51 98 143 44 91 49 98 89
112 51 18 49 23 28 -97 -15 -83 -13 -108 5 -59 6 16 13 36 16 44 16 41 33 130
34 172 0 38 6 54 28 79 l29 32 45 -59 c45 -58 118 -134 118 -122 0 3 -21 36
-46 74 -56 82 -104 180 -104 211 0 12 -5 25 -11 29 -10 6 35 44 53 44 3 0 25
-38 49 -85 48 -94 141 -225 147 -206 2 7 -3 20 -11 29 -26 31 -84 146 -96 192
-7 25 -11 67 -9 93 l3 48 52 -40 c29 -21 66 -45 82 -52 21 -10 35 -27 47 -59
9 -25 21 -50 26 -57 14 -17 108 -37 120 -25 6 6 -2 12 -26 16 -48 9 -74 34
-82 79 -6 36 -6 37 25 37 20 0 51 -13 82 -35 69 -48 92 -45 38 5 l-44 39 35 1
c43 0 156 27 179 41 12 8 7 9 -19 4 -19 -4 -77 -10 -129 -14 l-93 -6 -40 45
c-22 25 -47 58 -55 73 -14 28 -14 29 9 21 78 -25 208 -33 237 -15 10 6 28 3
54 -10 21 -11 44 -18 50 -16 7 2 -3 11 -20 21 -18 9 -33 18 -33 20 0 3 21 12
48 22 26 10 58 25 72 34 17 12 38 16 64 12 27 -3 37 -1 32 7 -4 6 -17 11 -29
11 -25 1 -31 -5 66 65 73 52 63 64 -12 14 -32 -21 -62 -39 -66 -39 -5 0 -16
-7 -26 -16 -16 -14 -24 -12 -99 22 -76 35 -83 37 -95 21 -11 -15 -16 -12 -49
35 -20 29 -36 57 -36 62 0 17 86 -5 156 -40 l72 -36 76 32 c42 18 78 36 82 41
3 5 24 9 47 10 40 1 41 1 15 11 l-28 10 58 43 c65 50 121 105 105 105 -6 0
-30 -16 -54 -35 -23 -20 -63 -48 -88 -62 -25 -15 -49 -32 -53 -37 -7 -11 -120
54 -126 72 -2 6 12 26 30 46 25 26 57 42 138 69 116 39 200 73 200 82 0 3 -19
2 -42 -1 l-43 -6 26 24 c35 31 130 154 124 160 -3 3 -37 -26 -75 -63 -95 -92
-260 -188 -324 -189 -10 0 -35 -19 -56 -42 l-37 -42 -18 27 c-15 23 -24 27
-64 27 -73 0 -135 26 -197 83 -67 61 -105 114 -131 187 -43 117 -59 363 -34
525 23 147 120 301 202 323 61 15 157 -4 231 -47 78 -45 88 -40 25 12 -55 45
-120 79 -166 86 l-36 6 37 28 c95 73 246 87 361 32 82 -38 144 -122 161 -218
15 -83 -42 -189 -127 -234 -99 -51 -229 14 -290 146 -28 59 -27 58 -36 42 -10
-16 3 -81 25 -125 32 -61 67 -98 118 -122 135 -63 303 11 350 154 56 167 -22
345 -184 426 l-55 27 60 -5 c118 -11 279 -112 347 -217 41 -64 49 -47 11 23
-46 84 -138 169 -234 217 -124 61 -237 76 -349 47 -30 -8 -57 -13 -58 -11 -2
2 4 17 14 34 21 36 52 50 117 55 26 1 49 5 50 7 2 2 13 28 25 56 27 69 77 143
148 221 31 35 54 66 50 69 -17 17 -188 -160 -241 -252 -21 -35 -34 -46 -61
-51 -19 -3 -37 -5 -39 -2 -2 2 2 26 10 53 17 59 34 194 25 200 -3 2 -14 -28
-24 -67 -40 -155 -111 -290 -195 -373 l-51 -49 0 32 c0 92 -143 116 -173 30
-7 -21 1 -48 14 -48 5 0 9 8 9 18 0 25 20 42 50 42 34 0 50 -17 50 -53 0 -31
-14 -47 -143 -159 -75 -66 -81 -63 -72 36 29 305 268 581 612 707 117 43 86
48 -44 8 -34 -10 -65 -19 -68 -19 -4 0 16 25 44 56 88 100 148 241 139 327
-18 157 -177 275 -301 223 -61 -25 -117 -113 -117 -183 0 -44 25 -98 58 -123
28 -23 100 -27 135 -8 76 40 86 138 18 173 -22 11 -32 11 -58 0 -31 -13 -50
-46 -38 -65 11 -17 23 -11 27 13 4 29 47 36 65 11 34 -47 -8 -104 -77 -104
-65 0 -96 60 -75 145 9 33 24 59 45 78 29 26 39 29 81 25 118 -12 185 -136
148 -273 -31 -115 -103 -209 -241 -316 -45 -35 -119 -99 -164 -142 -44 -42
-84 -74 -87 -70 -12 11 -7 139 8 218 22 118 65 171 131 163 61 -7 68 -99 9
-114 -34 -8 -32 -24 4 -24 39 0 79 34 87 74 6 36 -5 66 -39 103 -43 48 -130
37 -170 -23 l-24 -34 -27 138 c-15 75 -48 206 -72 291 -53 186 -57 251 -20
381 l7 25 -20 -23 c-11 -12 -27 -46 -36 -75 -9 -28 -19 -58 -21 -66 -3 -9 -20
12 -42 50 -73 125 -209 315 -219 305 -3 -2 17 -42 45 -88 56 -95 193 -370 217
-438 40 -109 83 -249 88 -290 7 -44 5 -42 -41 45 -126 237 -283 418 -513 592
-108 81 -117 90 -128 130 -10 34 9 88 37 109 41 30 144 23 169 -12 19 -26 16
-71 -7 -94 -24 -24 -25 -30 -6 -30 20 0 66 57 66 81 0 30 -26 74 -55 93 -32
21 -118 29 -160 16z m797 -3215 c18 -24 5 -24 -27 1 -19 14 -35 30 -35 35 0
10 50 -19 62 -36z m246 -31 c-40 -21 -144 -30 -163 -14 -34 29 -16 35 87 32
96 -3 101 -5 76 -18z m-3318 -9 c62 -12 69 -15 75 -48 9 -42 36 -119 48 -135
5 -7 7 -15 5 -18 -6 -5 -190 189 -197 207 -2 7 4 9 15 6 11 -3 35 -8 54 -12z
m293 -83 c107 -64 231 -126 352 -177 50 -21 94 -41 98 -45 8 -7 -73 -15 -290
-26 l-121 -7 -27 29 c-48 53 -114 160 -138 226 l-25 64 32 -5 c17 -3 71 -30
119 -59z m3184 18 c57 -18 58 -18 30 -29 -53 -21 -72 -22 -109 -7 -48 21 -54
33 -26 55 16 14 27 16 35 9 7 -5 38 -18 70 -28z m-297 -229 c75 -50 49 -48
-65 4 -98 44 -152 103 -199 217 -14 32 -1 22 92 -71 59 -59 136 -126 172 -150z
m-45 205 c4 -11 62 -89 80 -106 31 -29 31 -36 0 -42 -19 -4 -34 5 -70 41 -54
55 -86 101 -78 113 4 7 66 1 68 -6z m-239 -234 c16 -20 53 -63 83 -95 49 -52
52 -57 26 -47 -77 29 -146 115 -184 228 -29 84 -26 87 13 14 19 -35 47 -80 62
-100z m490 38 c-23 -10 -34 -20 -31 -29 4 -11 2 -11 -9 -2 -10 8 -21 9 -41 1
-24 -9 -32 -7 -52 12 l-24 22 23 12 c19 10 26 10 41 -3 18 -17 24 -4 6 14 -26
26 3 31 62 10 l61 -22 -36 -15z m-630 -125 c-3 -12 -20 -39 -37 -61 l-32 -39
6 45 c3 25 18 72 34 105 l28 60 3 -44 c2 -25 1 -54 -2 -66z m-1826 39 c85 -17
123 -36 105 -52 -22 -19 -203 -66 -255 -65 -50 0 -149 29 -325 96 l-40 16 60
2 c33 1 114 5 180 9 66 3 136 7 155 8 19 1 73 -5 120 -14z m643 -45 c54 -6
177 -9 273 -7 95 1 174 2 174 1 0 -1 -33 -19 -72 -41 -98 -54 -239 -108 -351
-137 -89 -22 -125 -28 -232 -41 l-51 -6 -45 53 c-48 56 -86 116 -78 122 2 1
47 20 99 40 102 39 89 39 283 16z m732 -41 c-14 -45 -54 -105 -100 -147 -26
-24 -49 -41 -51 -38 -3 2 1 35 7 71 l13 67 60 33 c74 41 79 42 71 14z m-1194
-85 c13 -21 38 -57 56 -80 l34 -41 -63 -5 c-35 -2 -135 -3 -223 -2 -128 2
-176 7 -240 24 -43 12 -83 25 -87 29 -5 5 45 16 109 25 65 9 177 32 248 50 72
19 133 35 137 36 3 0 17 -16 29 -36z m1518 -57 c1 -41 -3 -56 -21 -75 -16 -18
-21 -34 -19 -58 3 -38 -10 -58 -50 -79 l-28 -14 20 58 c16 44 19 70 14 115 -5
52 -3 64 21 104 l27 46 17 -23 c10 -13 18 -43 19 -74z m-563 -35 l0 -61 -79
-25 c-83 -27 -235 -44 -326 -38 -47 4 -68 -2 -170 -46 -116 -50 -350 -126
-359 -117 -2 3 12 21 32 40 54 53 206 123 332 152 165 39 428 113 492 139 31
13 62 22 67 21 6 -2 10 -31 11 -65z m159 -126 c-13 -31 -33 -69 -45 -85 -11
-15 -20 -32 -20 -37 0 -5 -12 -16 -27 -25 -30 -17 -197 -88 -209 -88 -4 0 22
30 57 68 91 96 129 140 129 150 0 7 124 71 137 72 2 0 -8 -25 -22 -55z m-235
-70 c-27 -29 -97 -52 -112 -37 -6 6 -5 12 2 17 10 6 108 40 129 44 3 1 -6 -10
-19 -24z m-265 -6 c70 -11 75 -13 60 -29 -8 -9 -15 -21 -15 -27 0 -12 -174
-96 -267 -127 l-71 -24 -42 30 -41 30 -107 -21 c-59 -12 -117 -24 -129 -26
-20 -5 -20 -3 -11 29 11 33 14 35 87 51 92 19 400 104 421 116 20 11 26 11
115 -2z m-88 -197 c-21 -22 -55 -48 -75 -60 l-37 -20 -28 22 -29 23 99 35 c54
20 100 36 103 37 2 0 -13 -16 -33 -37z"/>
<path d="M1967 1753 c-3 -5 8 -8 23 -8 15 0 26 3 23 8 -2 4 -13 7 -23 7 -10 0
-21 -3 -23 -7z"/>
<path d="M2501 1744 c0 -11 3 -14 6 -6 3 7 2 16 -1 19 -3 4 -6 -2 -5 -13z"/>
<path d="M2138 1733 c6 -2 12 -16 12 -29 0 -13 4 -24 8 -24 5 0 7 14 4 30 -3
20 -10 30 -21 29 -10 0 -11 -2 -3 -6z"/>
<path d="M2930 1729 c0 -5 5 -7 10 -4 6 3 10 8 10 11 0 2 -4 4 -10 4 -5 0 -10
-5 -10 -11z"/>
<path d="M3072 1710 c0 -19 2 -27 5 -17 2 9 2 25 0 35 -3 9 -5 1 -5 -18z"/>
<path d="M3287 1720 c3 -11 7 -20 9 -20 2 0 4 9 4 20 0 11 -4 20 -9 20 -5 0
-7 -9 -4 -20z"/>
<path d="M1822 1710 c0 -14 2 -19 5 -12 2 6 2 18 0 25 -3 6 -5 1 -5 -13z"/>
<path d="M1892 1705 c0 -16 2 -22 5 -12 2 9 2 23 0 30 -3 6 -5 -1 -5 -18z"/>
<path d="M2068 1705 c-3 -14 -1 -25 3 -25 5 0 9 11 9 25 0 14 -2 25 -4 25 -2
0 -6 -11 -8 -25z"/>
<path d="M2182 1705 c0 -16 2 -22 5 -12 2 9 2 23 0 30 -3 6 -5 -1 -5 -18z"/>
<path d="M2215 1720 c3 -5 8 -10 11 -10 2 0 4 5 4 10 0 6 -5 10 -11 10 -5 0
-7 -4 -4 -10z"/>
<path d="M2282 1710 c0 -14 2 -19 5 -12 2 6 2 18 0 25 -3 6 -5 1 -5 -13z"/>
<path d="M2731 1714 c0 -11 3 -14 6 -6 3 7 2 16 -1 19 -3 4 -6 -2 -5 -13z"/>
<path d="M2911 1714 c0 -11 3 -14 6 -6 3 7 2 16 -1 19 -3 4 -6 -2 -5 -13z"/>
<path d="M3135 1719 c-4 -6 -5 -12 -2 -15 2 -3 7 2 10 11 7 17 1 20 -8 4z"/>
<path d="M3232 1705 c0 -16 2 -22 5 -12 2 9 2 23 0 30 -3 6 -5 -1 -5 -18z"/>
<path d="M3262 1710 c0 -14 2 -19 5 -12 2 6 2 18 0 25 -3 6 -5 1 -5 -13z"/>
<path d="M2660 1710 c0 -5 5 -10 11 -10 5 0 7 5 4 10 -3 6 -8 10 -11 10 -2 0
-4 -4 -4 -10z"/>
<path d="M2988 1713 c-10 -2 -18 -12 -17 -21 0 -11 2 -12 6 -4 2 6 9 12 14 12
6 0 7 -4 4 -10 -3 -5 -1 -10 4 -10 6 0 11 9 11 20 0 11 -1 19 -2 19 -2 -1 -11
-3 -20 -6z"/>
<path d="M2010 1701 c0 -9 -9 -12 -25 -9 -13 3 -22 1 -19 -3 7 -13 42 -11 49
2 4 6 4 13 1 16 -3 4 -6 1 -6 -6z"/>
<path d="M2120 1695 c0 -8 2 -15 4 -15 2 0 6 7 10 15 3 8 1 15 -4 15 -6 0 -10
-7 -10 -15z"/>
<path d="M3190 1701 c0 -6 4 -13 10 -16 6 -3 7 1 4 9 -7 18 -14 21 -14 7z"/>
<path d="M2030 1690 c0 -5 5 -10 11 -10 5 0 7 5 4 10 -3 6 -8 10 -11 10 -2 0
-4 -4 -4 -10z"/>
</g>
</svg>
